<?xml version="1.0" encoding="utf-8"?>
<!-- Generator: Adobe Illustrator 24.0.1, SVG Export Plug-In . SVG Version: 6.00 Build 0)  -->
<svg version="1.1" id="Слой_1" xmlns="http://www.w3.org/2000/svg" xmlns:xlink="http://www.w3.org/1999/xlink" x="0px" y="0px"
	 viewBox="0 0 139 17" style="enable-background:new 0 0 139 17;" xml:space="preserve">
<style type="text/css">
	.st0{fill:#FFFFFF;}
	.st1{display:none;fill:#FFFFFF;}
	.st2{fill:#B2B0B2;}
</style>
<path class="st0" d="M32.2,6.2H20.5l-0.4,0.3v10.2h3.2v-3.8l0.3-0.3h8.6c2.2,0,3.2-0.6,3.2-2V8.2C35.4,6.7,34.4,6.2,32.2,6.2z
	 M32.2,9.9c0,0.7-0.5,0.8-1.5,0.8h-7l-0.3-0.3V8.3L23.6,8h7.1c1,0,1.5,0.1,1.5,0.8L32.2,9.9L32.2,9.9z"/>
<path class="st0" d="M41.3,8.1l2.8,4l-0.2,0.4h-6.2l-1.6,1.9h9.2l0.7,0.4l1.4,1.9h3.7L43,6"/>
<path class="st0" d="M78.1,14.6v-2.9l0.3-0.3h6.2V9.7h-9.8v7h14.5v-1.8H78.4"/>
<path class="st0" d="M89.4,6.2H74.8v2h14.6V6.2z"/>
<path class="st0" d="M58.5,8h11.8c-0.2-1.5-1.1-1.9-3.5-1.9h-8.5c-2.7,0-3.5,0.5-3.5,2.5v5.6c0,2,0.8,2.5,3.5,2.5h8.4
	c2.4,0,3.3-0.4,3.4-2H58.5l-0.3-0.3V8.3"/>
<path class="st0" d="M12.2,10.3H3.7L3.4,10V8.2L3.7,8h11.5l0.2-0.4c-0.4-1-1.4-1.5-3.3-1.5H4c-2.7,0-3.5,0.5-3.5,2.5v1.2
	c0,2,0.8,2.5,3.5,2.5h8.5l0.3,0.2v1.9l-0.2,0.3H0.3c0,0-0.3,0.2-0.3,0.2c0.2,1.4,1.2,1.8,3.5,1.8h8.7c2.7,0,3.5-0.5,3.5-2.5v-1.4
	C15.7,10.8,14.9,10.3,12.2,10.3z"/>
<path class="st0" d="M98.6,6.1h-4.8l-0.3,0.5l5.3,3.8c1-0.6,2.1-1.1,3.3-1.7"/>
<path class="st1" d="M102.9,13.3l4.7,3.3h4.8l0.2-0.4l-7-5C104.8,11.9,103.8,12.6,102.9,13.3"/>
<path class="st2" d="M97.9,16.7h-4.4l-0.4-0.6c3-2.8,16.2-14.8,45-16.1C138.1,0,114,0.8,97.9,16.7z"/>
</svg>
